<?xml version='1.0' encoding='iso-8859-1'?>
<svg version="1.1" xmlns="http://www.w3.org/2000/svg" viewBox="0 0 489.963 489.963" xmlns:xlink="http://www.w3.org/1999/xlink" enable-background="new 0 0 489.963 489.963">
  <g>
    <g>
      <path d="m488.375,153.481l-48.9-89.5c-2.1-3.1-8.9-9.3-17.7-2.1l-46.2,52h-56.5l21.6-20.8c5.4-4 4.8-17.7-7.3-17.7h-43.7v-64.5c0-6.2-4.2-10.4-10.4-10.4h-69.7c-6.2,0-10.4,4.2-10.4,10.4v64.5h-43.7c-10.6,0.4-11.5,14.2-6.2,17.7l21.6,20.8h-55.6l-47.1-52c-6.1-5.7-14.7-4-17.7,2.1l-48.9,89.5c-2.1,3.1-2.1,7.3 0,10.4l48.9,84.5v230.7c0,6.2 4.2,10.4 10.4,10.4h368.3c5.2,0 10.4-4.2 10.4-10.4v-230.7l48.9-84.5c2-3.2 2-7.3-0.1-10.4zm-279.8-57.2v-0.1c6.2,0 10.4-4.2 10.4-10.4v-64.5h48.9v64.5c0,6.2 4.2,10.4 10.4,10.4h28.1l-62.4,60.4-62.4-60.3h27zm-91.3,38.4h75.2l45.2,43.7c4.6,4.6 10.9,3.7 14.6,0l45.3-43.7h74.3l40.6,102h-336.2l41-102zm-58.5,87.4l-36.4-63.5 39.5-71.7 35.4,39.5-38.5,95.7zm360,246.6h-0.1-347.4v-211.2h347.5v211.2zm11.4-246.6l-38.5-95.7 35.4-39.5 39.5,71.8-36.4,63.4z"/>
      <path d="m157.575,453.081c23.9,0 42.7-18.7 42.7-41.6 0-22.9-18.7-41.6-42.7-41.6s-42.6,18.7-42.6,41.6 18.7,41.6 42.6,41.6zm0-62.5c12.5,0 21.8,9.4 21.8,20.8 0,11.4-10.4,20.8-21.8,20.8-11.4,0-21.8-9.4-21.8-20.8 2.84217e-14-11.4 9.3-20.8 21.8-20.8z"/>
      <rect width="124.8" x="238.775" y="377.081" height="20.8"/>
      <rect width="124.8" x="238.775" y="423.881" height="20.8"/>
    </g>
  </g>
</svg>
